<svg xmlns="http://www.w3.org/2000/svg" width="344" height="349" viewBox="0 0 344 349" fill="none">
  <path d="M 204 37 L 196 41 L 189 45 L 182 49 L 156 64 L 130 79 L 85 105 L 73 112 L 69 116 L 68 118 L 67 121 L 67 273 L 68 276 L 69 278 L 73 282 L 77 284 L 92 293 L 118 308 L 125 312 L 132 316 L 140 320 L 147 320 L 155 316 L 162 312 L 195 293 L 221 278 L 259 256 L 263 253 L 274 242 L 276 239 L 278 235 L 281 229 L 283 222 L 284 216 L 284 191 L 283 186 L 281 181 L 280 179 L 278 176 L 271 169 L 271 167 L 275 162 L 279 154 L 282 145 L 283 141 L 284 134 L 284 84 L 283 81 L 282 79 L 278 75 L 274 73 L 259 64 L 233 49 L 226 45 L 219 41 L 211 37 Z M 250 187 L 252 187 L 255 188 L 258 191 L 259 193 L 259 216 L 258 219 L 257 222 L 256 224 L 254 227 L 247 234 L 244 236 L 237 240 L 223 248 L 173 277 L 171 278 L 168 279 L 165 279 L 162 278 L 157 273 L 156 271 L 156 242 L 159 239 L 164 236 L 174 231 L 235 195 L 242 191 Z M 247 115 L 250 115 L 253 116 L 258 121 L 259 123 L 259 135 L 258 139 L 257 142 L 256 145 L 255 147 L 254 149 L 252 152 L 248 157 L 244 161 L 240 164 L 237 166 L 232 169 L 213 180 L 161 210 L 157 212 L 156 170 L 157 168 L 161 164 L 166 161 L 171 158 L 190 147 L 197 144 L 216 132 L 244 116 Z" fill="#c9a84c" fill-rule="evenodd"/>
</svg>
